<?xml version="1.0" encoding="UTF-8" standalone="no"?>
<!DOCTYPE svg PUBLIC "-//W3C//DTD SVG 1.1//EN"
 "http://www.w3.org/Graphics/SVG/1.1/DTD/svg11.dtd">
<!-- Generated by graphviz version 2.49.3 (20211023.0002)
 -->
<!-- Title: G Pages: 1 -->
<svg width="4298pt" height="539pt"
 viewBox="0.00 0.00 4297.87 539.17" xmlns="http://www.w3.org/2000/svg" xmlns:xlink="http://www.w3.org/1999/xlink">
<g id="graph0" class="graph" transform="scale(1 1) rotate(0) translate(4 535.17)">
<title>G</title>
<polygon fill="white" stroke="transparent" points="-4,4 -4,-535.17 4293.87,-535.17 4293.87,4 -4,4"/>
<!-- v4 -->
<g id="node1" class="node">
<title>v4</title>
<ellipse fill="none" stroke="black" cx="688.35" cy="-396.08" rx="80.69" ry="18"/>
<text text-anchor="middle" x="688.35" y="-392.38" font-family="Times,serif" font-size="14.00">(4) referenceResult</text>
</g>
<!-- v13 -->
<g id="node2" class="node">
<title>v13</title>
<ellipse fill="none" stroke="black" cx="2649.35" cy="-396.08" rx="86.38" ry="18"/>
<text text-anchor="middle" x="2649.35" y="-392.38" font-family="Times,serif" font-size="14.00">(13) definitionResult</text>
</g>
<!-- v51 -->
<g id="node18" class="node">
<title>v51</title>
<ellipse fill="none" stroke="black" cx="3294.35" cy="-279" rx="293.55" ry="18"/>
<text text-anchor="middle" x="3294.35" y="-275.3" font-family="Times,serif" font-size="14.00">(51) range {&quot;start&quot;:{&quot;line&quot;:0,&quot;character&quot;:16},&quot;end&quot;:{&quot;line&quot;:0,&quot;character&quot;:21}}</text>
</g>
<!-- v13&#45;&gt;v51 -->
<g id="edge20" class="edge">
<title>v13&#45;&gt;v51</title>
<path fill="none" stroke="black" d="M2676.09,-378.96C2694.82,-368.43 2720.8,-355.32 2745.35,-348 2846.57,-317.84 2962.14,-301.04 3061.05,-291.69"/>
<polygon fill="black" stroke="black" points="3061.55,-295.16 3071.18,-290.76 3060.9,-288.19 3061.55,-295.16"/>
<text text-anchor="middle" x="2903.35" y="-318.8" font-family="Times,serif" font-size="14.00">(53) item</text>
</g>
<!-- v43 -->
<g id="node3" class="node">
<title>v43</title>
<ellipse fill="none" stroke="black" cx="4081.35" cy="-105" rx="85.29" ry="18"/>
<text text-anchor="middle" x="4081.35" y="-101.3" font-family="Times,serif" font-size="14.00">(43) referenceResult</text>
</g>
<!-- v57 -->
<g id="node5" class="node">
<title>v57</title>
<ellipse fill="none" stroke="black" cx="3895.35" cy="-279" rx="289.45" ry="18"/>
<text text-anchor="middle" x="3895.35" y="-275.3" font-family="Times,serif" font-size="14.00">(57) range {&quot;start&quot;:{&quot;line&quot;:2,&quot;character&quot;:9},&quot;end&quot;:{&quot;line&quot;:2,&quot;character&quot;:10}}</text>
</g>
<!-- v43&#45;&gt;v57 -->
<g id="edge17" class="edge">
<title>v43&#45;&gt;v57</title>
<path fill="none" stroke="black" d="M4100.7,-122.68C4109.57,-132.4 4116.82,-144.9 4110.35,-156 4079.82,-208.44 4017.43,-240.17 3967.69,-258.07"/>
<polygon fill="black" stroke="black" points="3966.53,-254.76 3958.24,-261.36 3968.84,-261.37 3966.53,-254.76"/>
<text text-anchor="middle" x="4123.35" y="-188.3" font-family="Times,serif" font-size="14.00">(59) item</text>
</g>
<!-- v41 -->
<g id="node4" class="node">
<title>v41</title>
<ellipse fill="none" stroke="black" cx="3001.35" cy="-105" rx="86.38" ry="18"/>
<text text-anchor="middle" x="3001.35" y="-101.3" font-family="Times,serif" font-size="14.00">(41) definitionResult</text>
</g>
<!-- v54 -->
<g id="node19" class="node">
<title>v54</title>
<ellipse fill="none" stroke="black" cx="3908.35" cy="-18" rx="284.85" ry="18"/>
<text text-anchor="middle" x="3908.35" y="-14.3" font-family="Times,serif" font-size="14.00">(54) range {&quot;start&quot;:{&quot;line&quot;:1,&quot;character&quot;:8},&quot;end&quot;:{&quot;line&quot;:1,&quot;character&quot;:9}}</text>
</g>
<!-- v41&#45;&gt;v54 -->
<g id="edge15" class="edge">
<title>v41&#45;&gt;v54</title>
<path fill="none" stroke="black" d="M3062.29,-92.23C3073.59,-90.29 3085.31,-88.45 3096.35,-87 3299,-60.44 3531.54,-42.2 3695.69,-31.35"/>
<polygon fill="black" stroke="black" points="3696.16,-34.83 3705.91,-30.68 3695.7,-27.84 3696.16,-34.83"/>
<text text-anchor="middle" x="3411.35" y="-57.8" font-family="Times,serif" font-size="14.00">(56) item</text>
</g>
<!-- v42 -->
<g id="node10" class="node">
<title>v42</title>
<ellipse fill="none" stroke="black" cx="3823.35" cy="-192" rx="59.59" ry="18"/>
<text text-anchor="middle" x="3823.35" y="-188.3" font-family="Times,serif" font-size="14.00">(42) resultSet</text>
</g>
<!-- v57&#45;&gt;v42 -->
<g id="edge21" class="edge">
<title>v57&#45;&gt;v42</title>
<path fill="none" stroke="black" d="M3880.78,-260.8C3870.2,-248.31 3855.74,-231.24 3843.98,-217.35"/>
<polygon fill="black" stroke="black" points="3846.55,-214.97 3837.41,-209.6 3841.21,-219.49 3846.55,-214.97"/>
<text text-anchor="middle" x="3888.85" y="-231.8" font-family="Times,serif" font-size="14.00">(58) next</text>
</g>
<!-- v3 -->
<g id="node6" class="node">
<title>v3</title>
<ellipse fill="none" stroke="black" cx="598.35" cy="-513.17" rx="55.49" ry="18"/>
<text text-anchor="middle" x="598.35" y="-509.47" font-family="Times,serif" font-size="14.00">(3) resultSet</text>
</g>
<!-- v3&#45;&gt;v4 -->
<g id="edge5" class="edge">
<title>v3&#45;&gt;v4</title>
<path fill="none" stroke="black" d="M635.78,-499.67C646.99,-494.31 658.41,-486.96 666.35,-477.17 678.43,-462.29 683.9,-441.28 686.36,-424.51"/>
<polygon fill="black" stroke="black" points="689.88,-424.55 687.59,-414.21 682.93,-423.73 689.88,-424.55"/>
<text text-anchor="middle" x="754.85" y="-465.97" font-family="Times,serif" font-size="14.00">(7) textDocument/references</text>
</g>
<!-- v9 -->
<g id="node12" class="node">
<title>v9</title>
<ellipse fill="none" stroke="black" cx="1206.35" cy="-396.08" rx="419.43" ry="18"/>
<text text-anchor="middle" x="1206.35" y="-392.38" font-family="Times,serif" font-size="14.00">(9) moniker {&quot;Kind&quot;:&quot;export&quot;,&quot;Scheme&quot;:&quot;lsif&#45;node&quot;,&quot;Identifier&quot;:&quot;lsif&#45;node npm example 1.0.0 src/example.ts/&quot;}</text>
</g>
<!-- v3&#45;&gt;v9 -->
<g id="edge6" class="edge">
<title>v3&#45;&gt;v9</title>
<path fill="none" stroke="black" d="M649.3,-505.83C698.2,-499.5 774.04,-489.02 839.35,-477.17 938.99,-459.08 1052.78,-433.47 1126.9,-416.12"/>
<polygon fill="black" stroke="black" points="1127.7,-419.53 1136.63,-413.84 1126.1,-412.71 1127.7,-419.53"/>
<text text-anchor="middle" x="946.35" y="-465.97" font-family="Times,serif" font-size="14.00">(10) moniker</text>
</g>
<!-- v5 -->
<g id="node17" class="node">
<title>v5</title>
<ellipse fill="none" stroke="black" cx="204.35" cy="-396.08" rx="204.21" ry="48.17"/>
<text text-anchor="middle" x="204.35" y="-414.88" font-family="Times,serif" font-size="14.00">(5) hoverResult &quot;export function hello(): string {</text>
<text text-anchor="middle" x="204.35" y="-399.88" font-family="Times,serif" font-size="14.00"> &#160;const a = &#39;a&#39;</text>
<text text-anchor="middle" x="204.35" y="-384.88" font-family="Times,serif" font-size="14.00"> &#160;return a</text>
<text text-anchor="middle" x="204.35" y="-369.88" font-family="Times,serif" font-size="14.00">}&quot;</text>
</g>
<!-- v3&#45;&gt;v5 -->
<g id="edge18" class="edge">
<title>v3&#45;&gt;v5</title>
<path fill="none" stroke="black" d="M544.04,-509.34C494.83,-505.59 420.83,-496.94 359.35,-477.17 334.79,-469.27 309.41,-457.76 286.48,-445.91"/>
<polygon fill="black" stroke="black" points="287.96,-442.74 277.48,-441.19 284.7,-448.94 287.96,-442.74"/>
<text text-anchor="middle" x="426.85" y="-465.97" font-family="Times,serif" font-size="14.00">(8) textDocument/hover</text>
</g>
<!-- v2 -->
<g id="node20" class="node">
<title>v2</title>
<ellipse fill="none" stroke="black" cx="508.35" cy="-396.08" rx="81.79" ry="18"/>
<text text-anchor="middle" x="508.35" y="-392.38" font-family="Times,serif" font-size="14.00">(2) definitionResult</text>
</g>
<!-- v3&#45;&gt;v2 -->
<g id="edge9" class="edge">
<title>v3&#45;&gt;v2</title>
<path fill="none" stroke="black" d="M548.75,-505.12C532.17,-500.13 515.37,-491.64 505.35,-477.17 494.73,-461.82 496.07,-440.56 499.74,-423.81"/>
<polygon fill="black" stroke="black" points="503.15,-424.61 502.25,-414.05 496.37,-422.86 503.15,-424.61"/>
<text text-anchor="middle" x="583.85" y="-465.97" font-family="Times,serif" font-size="14.00">(6) textDocument/definition</text>
</g>
<!-- v11 -->
<g id="node7" class="node">
<title>v11</title>
<ellipse fill="none" stroke="black" cx="1872.35" cy="-279" rx="247.76" ry="18"/>
<text text-anchor="middle" x="1872.35" y="-275.3" font-family="Times,serif" font-size="14.00">(11) packageInformation {&quot;Name&quot;:&quot;example&quot;,&quot;Version&quot;:&quot;1.0.0&quot;}</text>
</g>
<!-- v15 -->
<g id="node8" class="node">
<title>v15</title>
<ellipse fill="none" stroke="black" cx="2839.35" cy="-396.08" rx="85.29" ry="18"/>
<text text-anchor="middle" x="2839.35" y="-392.38" font-family="Times,serif" font-size="14.00">(15) referenceResult</text>
</g>
<!-- v16 -->
<g id="node9" class="node">
<title>v16</title>
<ellipse fill="none" stroke="black" cx="3151.35" cy="-396.08" rx="209.11" ry="48.17"/>
<text text-anchor="middle" x="3151.35" y="-414.88" font-family="Times,serif" font-size="14.00">(16) hoverResult &quot;export function hello(): string {</text>
<text text-anchor="middle" x="3151.35" y="-399.88" font-family="Times,serif" font-size="14.00"> &#160;const a = &#39;a&#39;</text>
<text text-anchor="middle" x="3151.35" y="-384.88" font-family="Times,serif" font-size="14.00"> &#160;return a</text>
<text text-anchor="middle" x="3151.35" y="-369.88" font-family="Times,serif" font-size="14.00">}&quot;</text>
</g>
<!-- v42&#45;&gt;v43 -->
<g id="edge8" class="edge">
<title>v42&#45;&gt;v43</title>
<path fill="none" stroke="black" d="M3863.91,-178.51C3881.36,-172.56 3901.74,-164.81 3919.35,-156 3930.27,-150.54 3931.17,-145.89 3942.35,-141 3963.11,-131.92 3986.69,-124.87 4008.46,-119.56"/>
<polygon fill="black" stroke="black" points="4009.38,-122.94 4018.31,-117.24 4007.77,-116.12 4009.38,-122.94"/>
<text text-anchor="middle" x="4026.35" y="-144.8" font-family="Times,serif" font-size="14.00">(46) textDocument/references</text>
</g>
<!-- v42&#45;&gt;v41 -->
<g id="edge13" class="edge">
<title>v42&#45;&gt;v41</title>
<path fill="none" stroke="black" d="M3765.17,-187.48C3641.58,-179.58 3343.89,-158.32 3096.35,-123 3088.71,-121.91 3080.75,-120.66 3072.82,-119.35"/>
<polygon fill="black" stroke="black" points="3073.27,-115.87 3062.83,-117.66 3072.11,-122.78 3073.27,-115.87"/>
<text text-anchor="middle" x="3456.35" y="-144.8" font-family="Times,serif" font-size="14.00">(45) textDocument/definition</text>
</g>
<!-- v48 -->
<g id="node11" class="node">
<title>v48</title>
<ellipse fill="none" stroke="black" cx="3377.35" cy="-105" rx="271.85" ry="18"/>
<text text-anchor="middle" x="3377.35" y="-101.3" font-family="Times,serif" font-size="14.00">(48) moniker {&quot;Kind&quot;:&quot;export&quot;,&quot;Scheme&quot;:&quot;local&quot;,&quot;Identifier&quot;:&quot;local 2&quot;}</text>
</g>
<!-- v42&#45;&gt;v48 -->
<g id="edge11" class="edge">
<title>v42&#45;&gt;v48</title>
<path fill="none" stroke="black" d="M3774.35,-181.66C3701.86,-167.85 3564.68,-141.7 3472.13,-124.06"/>
<polygon fill="black" stroke="black" points="3472.68,-120.6 3462.2,-122.17 3471.37,-127.48 3472.68,-120.6"/>
<text text-anchor="middle" x="3663.35" y="-144.8" font-family="Times,serif" font-size="14.00">(49) moniker</text>
</g>
<!-- v44 -->
<g id="node14" class="node">
<title>v44</title>
<ellipse fill="none" stroke="black" cx="3769.35" cy="-105" rx="102.88" ry="18"/>
<text text-anchor="middle" x="3769.35" y="-101.3" font-family="Times,serif" font-size="14.00">(44) hoverResult &quot;a = &#39;a&#39;&quot;</text>
</g>
<!-- v42&#45;&gt;v44 -->
<g id="edge14" class="edge">
<title>v42&#45;&gt;v44</title>
<path fill="none" stroke="black" d="M3780.75,-179.18C3769.6,-173.95 3758.89,-166.5 3752.35,-156 3747.83,-148.73 3748.87,-140.1 3752.02,-132.08"/>
<polygon fill="black" stroke="black" points="3755.19,-133.57 3756.48,-123.06 3748.91,-130.47 3755.19,-133.57"/>
<text text-anchor="middle" x="3823.35" y="-144.8" font-family="Times,serif" font-size="14.00">(47) textDocument/hover</text>
</g>
<!-- v9&#45;&gt;v11 -->
<g id="edge1" class="edge">
<title>v9&#45;&gt;v11</title>
<path fill="none" stroke="black" d="M1302.13,-378.53C1426.81,-356.99 1643.76,-319.5 1771.08,-297.5"/>
<polygon fill="black" stroke="black" points="1771.97,-300.9 1781.23,-295.75 1770.78,-294 1771.97,-300.9"/>
<text text-anchor="middle" x="1726.35" y="-318.8" font-family="Times,serif" font-size="14.00">(12) packageInformation</text>
</g>
<!-- v50 -->
<g id="node13" class="node">
<title>v50</title>
<ellipse fill="none" stroke="black" cx="3895.35" cy="-396.08" rx="394.53" ry="18"/>
<text text-anchor="middle" x="3895.35" y="-392.38" font-family="Times,serif" font-size="14.00">(50) document &quot;file:///Users/olafurpg/dev/sourcegraph/lsif&#45;node/snapshots/input/example/src/example.ts&quot;</text>
</g>
<!-- v50&#45;&gt;v57 -->
<g id="edge4" class="edge">
<title>v50&#45;&gt;v57</title>
<path fill="none" stroke="black" d="M3895.35,-377.6C3895.35,-358.99 3895.35,-329.28 3895.35,-307.52"/>
<polygon fill="black" stroke="black" points="3898.85,-307.27 3895.35,-297.27 3891.85,-307.27 3898.85,-307.27"/>
<text text-anchor="middle" x="3932.35" y="-318.8" font-family="Times,serif" font-size="14.00">(60) contains</text>
</g>
<!-- v50&#45;&gt;v51 -->
<g id="edge2" class="edge">
<title>v50&#45;&gt;v51</title>
<path fill="none" stroke="black" d="M3808.61,-378.47C3697.11,-357.12 3504.2,-320.18 3389,-298.12"/>
<polygon fill="black" stroke="black" points="3389.61,-294.68 3379.13,-296.23 3388.3,-301.55 3389.61,-294.68"/>
<text text-anchor="middle" x="3577.35" y="-318.8" font-family="Times,serif" font-size="14.00">(60) contains</text>
</g>
<!-- v50&#45;&gt;v54 -->
<g id="edge3" class="edge">
<title>v50&#45;&gt;v54</title>
<path fill="none" stroke="black" d="M3994.78,-378.6C4087.75,-360.29 4212.35,-326.99 4212.35,-280 4212.35,-280 4212.35,-280 4212.35,-104 4212.35,-68.99 4136.63,-47.76 4060.77,-35.26"/>
<polygon fill="black" stroke="black" points="4060.99,-31.75 4050.56,-33.63 4059.89,-38.67 4060.99,-31.75"/>
<text text-anchor="middle" x="4249.35" y="-188.3" font-family="Times,serif" font-size="14.00">(60) contains</text>
</g>
<!-- v14 -->
<g id="node15" class="node">
<title>v14</title>
<ellipse fill="none" stroke="black" cx="2839.35" cy="-513.17" rx="59.59" ry="18"/>
<text text-anchor="middle" x="2839.35" y="-509.47" font-family="Times,serif" font-size="14.00">(14) resultSet</text>
</g>
<!-- v14&#45;&gt;v13 -->
<g id="edge12" class="edge">
<title>v14&#45;&gt;v13</title>
<path fill="none" stroke="black" d="M2783.03,-506.74C2740.7,-501.54 2687.37,-492.21 2671.35,-477.17 2657.08,-463.76 2651.76,-442.04 2649.91,-424.6"/>
<polygon fill="black" stroke="black" points="2653.38,-424.12 2649.16,-414.41 2646.4,-424.64 2653.38,-424.12"/>
<text text-anchor="middle" x="2753.35" y="-465.97" font-family="Times,serif" font-size="14.00">(17) textDocument/definition</text>
</g>
<!-- v14&#45;&gt;v15 -->
<g id="edge7" class="edge">
<title>v14&#45;&gt;v15</title>
<path fill="none" stroke="black" d="M2839.35,-494.69C2839.35,-476.08 2839.35,-446.36 2839.35,-424.6"/>
<polygon fill="black" stroke="black" points="2842.85,-424.35 2839.35,-414.35 2835.85,-424.35 2842.85,-424.35"/>
<text text-anchor="middle" x="2923.35" y="-465.97" font-family="Times,serif" font-size="14.00">(18) textDocument/references</text>
</g>
<!-- v14&#45;&gt;v16 -->
<g id="edge10" class="edge">
<title>v14&#45;&gt;v16</title>
<path fill="none" stroke="black" d="M2894.05,-505.58C2928.48,-500.34 2973.43,-491.45 3011.35,-477.17 3032.7,-469.13 3054.63,-458.1 3074.62,-446.8"/>
<polygon fill="black" stroke="black" points="3076.43,-449.79 3083.35,-441.77 3072.94,-443.72 3076.43,-449.79"/>
<text text-anchor="middle" x="3114.35" y="-465.97" font-family="Times,serif" font-size="14.00">(19) textDocument/hover</text>
</g>
<!-- v20 -->
<g id="node16" class="node">
<title>v20</title>
<ellipse fill="none" stroke="black" cx="2094.35" cy="-396.08" rx="450.32" ry="18"/>
<text text-anchor="middle" x="2094.35" y="-392.38" font-family="Times,serif" font-size="14.00">(20) moniker {&quot;Kind&quot;:&quot;export&quot;,&quot;Scheme&quot;:&quot;lsif&#45;node&quot;,&quot;Identifier&quot;:&quot;lsif&#45;node npm example 1.0.0 src/example.ts/hello().&quot;}</text>
</g>
<!-- v14&#45;&gt;v20 -->
<g id="edge22" class="edge">
<title>v14&#45;&gt;v20</title>
<path fill="none" stroke="black" d="M2785.14,-505.22C2733.09,-498.45 2652.27,-487.66 2582.35,-477.17 2450.81,-457.42 2299.75,-432.24 2200.98,-415.44"/>
<polygon fill="black" stroke="black" points="2201.43,-411.97 2190.99,-413.74 2200.26,-418.87 2201.43,-411.97"/>
<text text-anchor="middle" x="2619.35" y="-465.97" font-family="Times,serif" font-size="14.00">(21) moniker</text>
</g>
<!-- v20&#45;&gt;v11 -->
<g id="edge16" class="edge">
<title>v20&#45;&gt;v11</title>
<path fill="none" stroke="black" d="M2061.6,-378.1C2022.38,-357.77 1956.65,-323.7 1913.9,-301.54"/>
<polygon fill="black" stroke="black" points="1915.37,-298.36 1904.88,-296.86 1912.15,-304.57 1915.37,-298.36"/>
<text text-anchor="middle" x="2033.35" y="-318.8" font-family="Times,serif" font-size="14.00">(22) packageInformation</text>
</g>
<!-- v51&#45;&gt;v14 -->
<g id="edge19" class="edge">
<title>v51&#45;&gt;v14</title>
<path fill="none" stroke="black" d="M3322.72,-296.94C3339.71,-308.85 3359.81,-326.47 3369.35,-348 3386.67,-387.08 3396.72,-411.33 3369.35,-444.17 3340.23,-479.11 3044.61,-500.43 2907.96,-508.48"/>
<polygon fill="black" stroke="black" points="2907.39,-505.01 2897.61,-509.09 2907.8,-512 2907.39,-505.01"/>
<text text-anchor="middle" x="3410.85" y="-392.38" font-family="Times,serif" font-size="14.00">(52) next</text>
</g>
<!-- v54&#45;&gt;v42 -->
<g id="edge23" class="edge">
<title>v54&#45;&gt;v42</title>
<path fill="none" stroke="black" d="M3911.55,-36.39C3915.67,-64.31 3919.59,-119.68 3894.35,-156 3889.11,-163.54 3881.77,-169.53 3873.78,-174.26"/>
<polygon fill="black" stroke="black" points="3872.14,-171.17 3864.92,-178.92 3875.4,-177.36 3872.14,-171.17"/>
<text text-anchor="middle" x="3938.85" y="-101.3" font-family="Times,serif" font-size="14.00">(55) next</text>
</g>
</g>
</svg>
